<svg xmlns="http://www.w3.org/2000/svg" width="180" viewBox="0 0 270.95 237.981"><defs><clipPath id="a"><rect width="160.21" height="225.262" fill="#ede7f6"></rect></clipPath></defs><g transform="translate(0 146.359) rotate(-66)"><g clip-path="url(#a)"><path d="M29.237,190.173C18.646,188.036,13.247,175.466,0,179.5c1.813,2.379,2.686,4.086,4.039,5.214C18.975,197.142,33.9,209.6,49.066,221.747c2.486,1.989,6.653,4.13,9.159,3.354,4.61-1.43,3.764-6.1,2.81-10.183-2.968-12.693-5.775-25.426-8.664-38.228-7.106,3.342-7.106,3.342-5.392,25.337C18.938,172.78,23.417,128.542,57,107.563c1.9,3.45,3.68,6.935,5.689,10.284,5.919,9.859,13.959,17.125,25.179,20.578,8.263,2.545,15.9,1.684,21.966-4.7,6.238-6.569,5.637-14.4,2.58-22.282C105.789,94.37,90.687,86.08,72.525,89.466c-2.241.418-4.546.482-7.625.791-1.768-23.123,2.726-44.164,16.576-62.175C102.829.312,132.4,6.878,152.055,21.6c2.429,1.82,4.519,4.093,8.155,7.43-.774-7.714-4.736-11.55-8.595-15.241C136.372-.784,110.5-4.281,91.793,5.582A60.855,60.855,0,0,0,64.94,33.343c-8.706,17.825-12.824,36.578-10.7,56.489.208,1.959.292,3.93.48,6.537-14.83,10.7-27.916,22.992-33.049,41.718-5.013,18.285,2.12,34.839,7.568,52.086M67,101.845c17.165-7.855,32.549-2.327,37.328,13.166,1.128,3.653.7,8.929-1.229,12.109-2.753,4.531-8.061,3.886-12.827,2.026-12.354-4.821-19.2-14.251-23.272-27.3" transform="translate(0 -0.002)" fill="#ccc"></path></g></g></svg>